/* XPM */
static char *ac_cam[] = {
/* columns rows colors chars-per-pixel */
"16 15 5 1",
"  c Gray0",
". c Gray50",
"X c Red",
"o c Gray75",
"O c Gray100",
/* pixels */
"oo. .ooo. .ooooo",
"o OOo o OOo oooo",
".OO Oo OO Oo ooo",
" O   O O   O ooo",
".oO Oo oO Oo ooo",
"o oOo o oOo  oo ",
"oo   ooo   o.   ",
"oo oo.o.o.o..oO ",
"oo .XX...... .o ",
"oo              ",
"ooo         oo  ",
"oooooo . oooooo ",
"oooooo . ooooooo",
"oooooo   ooooooo",
"oooooooooooooooo"
};
