/* XPM */
static const char*an_first[] = {
/* columns rows colors chars-per-pixel */
"16 15 4 1",
"  c #00007f",
". c Gray50",
"X c None",
"o c Gray100",
/* pixels */
"XXXXXXXXXXXXXXXX",
"XXXXXXXXXXXXXXXX",
"ooo.XXXXo.XXXXo.",
"o  .XXXo .XXXo .",
"o  .XXo  .XXo  .",
"o  .Xo   .Xo   .",
"o  .o    .o    .",
"o  o     o     .",
"o  ..    ..    .",
"o  .X.   .X.   .",
"o  .XX.  .XX.  .",
"o  .XXX. .XXX. .",
"o...XXXX..XXXX..",
"XXXXXXXXXXXXXXXX",
"XXXXXXXXXXXXXXXX"
};
