/* XPM */
static char *pi_train[] = {
/* columns rows colors chars-per-pixel */
"16 15 2 1",
"  c Gray0",
". c None",
/* pixels */
"................",
"................",
"...... .... ....",
"....          ..",
"...... .... ....",
"...... .... ....",
"....          ..",
"...... .... ....",
"...... .... ....",
"....          ..",
"...... .... ....",
"...... .... ....",
"....          ..",
"...... .... ....",
"................"
};
