/* XPM */
static const char*ac_prev[] = {
/* columns rows colors chars-per-pixel */
"16 15 6 1",
"  c Gray0",
". c #00007f",
"X c Gray50",
"o c Yellow",
"1 c Gray75",
"O c None",
/* pixels */
"OOOOOOOOOOOOOOOO",
"OOOOOOOO....OOOO",
"OOOOOOO..11....O",
"OOOOOO.1....1..O",
"OOOOO.111111.X.O",
"OOOO........XX.O",
"OOOO  11111.XX.O",
"OOO o 11111.XX.O",
"OO oo     1.XX.O",
"O ooooooo 1.XX.O",
" oooooooo 1.X.OO",
"O ooooooo 1..OOO",
"OO oo     ..OOOO",
"OOO o OOOOOOOOOO",
"OOOO  OOOOOOOOOO"
};
