/* XPM */
static const char*st_help[] = {
/* columns rows colors chars-per-pixel */
"16 15 4 1",
"  c Gray0",
". c #00007f",
"X c Gray50",
"o c None",
/* pixels */
"o ooooooo.....Xo",
"o  ooooo..ooX..X",
"o   ooo..Xooo...",
"o    oo..Xooo...",
"o     oX..ooX..X",
"o      ooooo..Xo",
"o       ooo..ooo",
"o        o..Xooo",
"o     oooo..Xooo",
"o  o  oooooooooo",
"o ooo  ooo...ooo",
"ooooo  ooo...ooo",
"oooooo  oooooooo",
"oooooo  oooooooo",
"oooooooooooooooo"
};
