/* XPM */
static const char*ac_roll[] = {
/* columns rows colors chars-per-pixel */
"16 15 5 1",
"  c Gray0",
". c #7f0000",
"X c Gray50",
"o c Red",
"O c None",
/* pixels */
"OOOOOOO.OOOOOOOO",
"OOOOOOOoOOOOOOOO",
"OOOOO XoX OOOOOO",
"OOO  OOoOO  OOOO",
"OO XOOO.OOOX OOO",
"OO OOOOOOOOO OOO",
"O XOOOOOOOOOX OO",
"O OOOOOOOOOOO OO",
"O OOOOOOOOOOO OO",
"O OOOOOOOOOOO OO",
"O XOOOOOOOOOX OO",
"OO OO OOO OO OOO",
"OO X XOOOX X OOO",
"OOO   OOO   OOOO",
"OO    OOO    OOO"
};
