/* XPM */
static const char*ac_zoomr[] = {
/* columns rows colors chars-per-pixel */
"16 15 6 1",
"  c Gray0",
". c #00007f",
"X c Gray50",
"o c Blue",
"O c Gray75",
"+ c Gray100",
/* pixels */
"  O   O  O   O  ",
" +O+O+O+O+O+O+O ",
"OO+O....+O+O+O+ ",
" +O.OOOO +O+O+OO",
" O.OO++OO +O+O+ ",
"O+.O++OO+ O+O+O ",
" O.O+OOO+ +O+O+O",
" +.OOOO+O O+O+O ",
"OO+ O++O +XO+O+ ",
" +O+    XXXXO+OO",
" O+O+O+O+ o.XO+ ",
"O+O+O+O+O+ o.+O ",
" O+O+O+O+O+ .O+O",
" +O+O+O+O+O+O+O ",
"   O  O  O  O   "
};
