<?xml version="1.0" encoding="UTF-8" standalone="no"?>
<svg
   height="18"
   viewBox="0 0 18 18"
   width="18"
   version="1.1"
   id="svg11"
   sodipodi:docname="Smock_Close_18_N.svg"
   inkscape:version="1.1.2 (b8e25be833, 2022-02-05)"
   xmlns:inkscape="http://www.inkscape.org/namespaces/inkscape"
   xmlns:sodipodi="http://sodipodi.sourceforge.net/DTD/sodipodi-0.dtd"
   xmlns="http://www.w3.org/2000/svg"
   xmlns:svg="http://www.w3.org/2000/svg">
  <sodipodi:namedview
     id="namedview13"
     pagecolor="#ffffff"
     bordercolor="#666666"
     borderopacity="1.0"
     inkscape:pageshadow="2"
     inkscape:pageopacity="0.0"
     inkscape:pagecheckerboard="0"
     showgrid="false"
     inkscape:zoom="39.944444"
     inkscape:cx="9"
     inkscape:cy="8.9874826"
     inkscape:window-width="1920"
     inkscape:window-height="1137"
     inkscape:window-x="-8"
     inkscape:window-y="-8"
     inkscape:window-maximized="1"
     inkscape:current-layer="svg11" />
  <defs
     id="defs4">
    <style
       id="style2">
      .fill {
        fill: #464646;
      }
    </style>
  </defs>
  <title
     id="title6">S Close 18 N</title>
  <rect
     id="Canvas"
     fill="#ff13dc"
     opacity="0"
     width="18"
     height="18" />
  <path
     class="fill"
     d="M13.2425,3.343,9,7.586,4.7575,3.343a.5.5,0,0,0-.707,0L3.343,4.05a.5.5,0,0,0,0,.707L7.586,9,3.343,13.2425a.5.5,0,0,0,0,.707l.707.7075a.5.5,0,0,0,.707,0L9,10.414l4.2425,4.243a.5.5,0,0,0,.707,0l.7075-.707a.5.5,0,0,0,0-.707L10.414,9l4.243-4.2425a.5.5,0,0,0,0-.707L13.95,3.343a.5.5,0,0,0-.70711-.00039Z"
     id="path9"
     style="fill:#b3b3b3" />
</svg>
