/* XPM */
static const char*ac_move[] = {
/* columns rows colors chars-per-pixel */
"16 15 4 1",
"  c Gray0",
". c #00007f",
"X c Gray50",
"o c None",
/* pixels */
"ooooooo.oooooooo",
"oooooo...ooooooo",
"ooooo     oooooo",
"oooooXo.oXoooooo",
"ooooooo.oooooooo",
"oo Xooo.oooX ooo",
"o. ooooooooo .oo",
".. ...o.o... ..o",
"o. ooooooooo .oo",
"oo Xooo.oooX ooo",
"ooooooo.oooooooo",
"oooooXo.oXoooooo",
"ooooo     oooooo",
"oooooo...ooooooo",
"ooooooo.oooooooo"
};
