/* XPM */
static const char* vports14[] = {
"41 31 3 1",
".	c #000000",
"+	c #C0C0C0",
"@	c #808080",
"....................+....................",
".@@@@@@@@@@@@@@@@@@.+.@@@@@@@@@@@@@@@@@@.",
".@@@@@@@@@@@@@@@@@@.+.@@@@@@@@@@@@@@@@@@.",
".@@@@@@@@@@@@@@@@@@.+.@@@@@@@@@@@@@@@@@@.",
".@@@@@@@@@@@@@@@@@@.+.@@@@@@@@@@@@@@@@@@.",
".@@@@@@@@@@@@@@@@@@.+.@@@@@@@@@@@@@@@@@@.",
".@@@@@@@@@@@@@@@@@@.+.@@@@@@@@@@@@@@@@@@.",
".@@@@@@@@@@@@@@@@@@.+.@@@@@@@@@@@@@@@@@@.",
".@@@@@@@@@@@@@@@@@@.+.@@@@@@@@@@@@@@@@@@.",
".@@@@@@@@@@@@@@@@@@.+.@@@@@@@@@@@@@@@@@@.",
".@@@@@@@@@@@@@@@@@@.+.@@@@@@@@@@@@@@@@@@.",
".@@@@@@@@@@@@@@@@@@.+.@@@@@@@@@@@@@@@@@@.",
".@@@@@@@@@@@@@@@@@@.+.@@@@@@@@@@@@@@@@@@.",
".@@@@@@@@@@@@@@@@@@.+.@@@@@@@@@@@@@@@@@@.",
"....................+....................",
".+++++++++++++++++++++++++++++++++++++++.",
"....................+....................",
".@@@@@@@@@@@@@@@@@@.+.@@@@@@@@@@@@@@@@@@.",
".@@@@@@@@@@@@@@@@@@.+.@@@@@@@@@@@@@@@@@@.",
".@@@@@@@@@@@@@@@@@@.+.@@@@@@@@@@@@@@@@@@.",
".@@@@@@@@@@@@@@@@@@.+.@@@@@@@@@@@@@@@@@@.",
".@@@@@@@@@@@@@@@@@@.+.@@@@@@@@@@@@@@@@@@.",
".@@@@@@@@@@@@@@@@@@.+.@@@@@@@@@@@@@@@@@@.",
".@@@@@@@@@@@@@@@@@@.+.@@@@@@@@@@@@@@@@@@.",
".@@@@@@@@@@@@@@@@@@.+.@@@@@@@@@@@@@@@@@@.",
".@@@@@@@@@@@@@@@@@@.+.@@@@@@@@@@@@@@@@@@.",
".@@@@@@@@@@@@@@@@@@.+.@@@@@@@@@@@@@@@@@@.",
".@@@@@@@@@@@@@@@@@@.+.@@@@@@@@@@@@@@@@@@.",
".@@@@@@@@@@@@@@@@@@.+.@@@@@@@@@@@@@@@@@@.",
".@@@@@@@@@@@@@@@@@@.+.@@@@@@@@@@@@@@@@@@.",
"....................+...................."};
