/* XPM */
static const char *cr_move[] = {
/* columns rows colors const chars-per-pixel */
"32 32 3 1",
"  c None",
". c #000000",
"+ c #FFFFFF",
/* pixels */
"                                ",
"                                ",
"                                ",
"                                ",
"                                ",
"                                ",
"                                ",
"               +                ",
"              +.+               ",
"             +...+              ",
"            +.....+             ",
"              +.+               ",
"          +   +.+   +           ",
"         +.   +.+   .+          ",
"        +..++++.++++..+         ",
"       +...............+        ",
"        +..++++.++++..+         ",
"         +.   +.+   .+          ",
"          +   +.+   +           ",
"              +.+               ",
"            +.....+             ",
"             +...+              ",
"              +.+               ",
"               +                ",
"                                ",
"                                ",
"                                ",
"                                ",
"                                ",
"                                ",
"                                ",
"                                "
};
