/* XPM */
static const char *pi_misc[] = {
/* columns rows colors const chars-per-pixel */
"16 15 2 1",
"  c Gray0",
". c None",
/* pixels */
"................",
"................",
"................",
"................",
"................",
"...    ..    ...",
"... .. .. .. ...",
"..            ..",
".. .......... ..",
".. .......... ..",
".. ...    ... ..",
".. .. .... .. ..",
"..   ......   ..",
"................",
"................"
};
