/* XPM */
static char *an_anim[] = {
/* columns rows colors chars-per-pixel */
"16 15 4 1",
"  c Gray0",
". c Gray50",
"X c Gray75",
"o c Gray100",
/* pixels */
"  .XoXX.  .XXXXX",
" o oXX   o XXXXX",
".  .  XX.  .XXXX",
"X o XXooX o XXXX",
"X.  .oXXX.  .XXX",
"XX o XoXXX o XXX",
"XX.  .XoXX.  .XX",
"XXX o oXX   o XX",
"XXX.  .  XX.  .X",
"XXXX o XXooX o X",
"XXXX.  .oXXX.  .",
"XXXXX o XoXXX o ",
"XXXXX.  .XoXX.  ",
"XXXXXX o oXX   o",
"XXXXXX.  .  XX. "
};
