/* XPM */
static const char*ac_pan[] = {
"16 15 5 1",
".	c None",
"+	c #000000",
"@	c #7F7F7F",
"#	c #FFFFFF",
"$	c #BFBFBF",
".......++.......",
"...+@.+#$@++....",
"..+$$@+$#+#$+...",
"..+#$++#$+$#+.+.",
"...+#$+$#+#$+@#+",
"...+$#+#$+$#+#$+",
".++$+$#$#$#$+$#+",
"+#$++#$#$#$#$#$@",
"+$#$+$#$#$#$#$@.",
".+$#$#$#$#$#$#+.",
"..+$#$#$#$#$#$+.",
"..@$$#$#$#$#$+..",
"...+#$#$#$#$#+..",
"....+#$#$#$#+...",
".....+#$#$#$+..."};
