/* XPM */
static const char*an_stop[] = {
/* columns rows colors chars-per-pixel */
"16 15 5 1",
"  c #00007f",
". c Gray50",
"X c Blue",
"o c None",
"O c Gray100",
/* pixels */
"oooooooooooooooo",
"oooooooooooooooo",
"oooOOOOOOOOO.ooo",
"oooOX X X X .ooo",
"oooO X X X X.ooo",
"oooOX X X X .ooo",
"oooO X X X X.ooo",
"oooOX X X X .ooo",
"oooO X X X X.ooo",
"oooOX X X X .ooo",
"oooO X X X X.ooo",
"oooOX X X X .ooo",
"oooO.........ooo",
"oooooooooooooooo",
"oooooooooooooooo"
};
