/* XPM */
static const char*st_paste[] = {
/* columns rows colors chars-per-pixel */
"16 15 8 1",
"  c Gray0",
". c #00007f",
"X c #7f7f00",
"o c Gray50",
"O c Yellow",
"+ c None",
"a c Gray75",
"@ c Gray100",
/* pixels */
"++++++    ++++++",
"++     OO     ++",
"+ oXo O  O XoX +",
"+ Xo aaaaaa Xo +",
"+ oX        oX +",
"+ XoXoXoXoXoXo +",
"+ oXoXo....... +",
"+ XoXoX.@@@@@..+",
"+ oXoXo.@@@@@.@.",
"+ XoXoX.@...@...",
"+ oXoXo.@@@@@@@.",
"+ XoXoX.@.....@.",
"++     .@@@@@@@.",
"+++++++.........",
"++++++++++++++++"
};
