/* XPM */
static const char* st_snapa[] = {
"16 15 5 1",
". 	c None",
"+	c #000000",
"@	c #7F7F7F",
"#	c #7F0000",
"$	c #C0C0C0",
"...........+....",
"..........+.....",
".........+......",
"........+++++...",
".......+.+++....",
"..$...+..+++....",
"@####....+..+...",
"######......+...",
"##@.###......+..",
"##...##@.....+..",
"###...+@@..+++++",
".###...++...+++.",
"..##@........+..",
"++.+@@.+++++++++",
"....++.........."};
