/* XPM */
static const char*ac_rotv[] = {
/* columns rows colors chars-per-pixel */
"16 15 4 1",
"  c Gray0",
". c #00007f",
"X c Gray50",
"o c None",
/* pixels */
"oooooo ooooooooo",
"ooooo   oooooooo",
"oooooo.ooooooooo",
"ooooo .  ooooooo",
"oooX o.oo Xooooo",
"ooo oo.ooo ooooo",
"oo ooo.oooo oooo",
"oo ooo.oooo oo o",
"oo ooo........  ",
"oo oo.ooooo oo o",
"ooo .ooooo ooooo",
"ooo. oooo Xooooo",
" o.oo    ooooooo",
" .oooooooooooooo",
"   ooooooooooooo"
};
