/* XPM */
static const char*ac_zoome[] = {
/* columns rows colors chars-per-pixel */
"16 15 6 1",
"  c #00007f",
". c #7f0000",
"X c Gray50",
"o c None",
"1 c Gray75",
"O c Gray100",
/* pixels */
"...oooooooooo...",
".oooooooooooooo.",
".oooo        oo.",
"oooo 1O1O1O  ooo",
"ooo 1O1O1O X ooo",
"oo        XX ooo",
"oo 111111 XX ooo",
"oo 111111 XX ooo",
"oo 111111 XX ooo",
"oo 111111 XX ooo",
"oo 111111 X oooo",
"oo 111111  ooooo",
".o        ooooo.",
".oooooooooooooo.",
"...oooooooooo..."
};
