/* XPM */
static const char* an_anim[] = {
"16 15 5 1",
".	c #000000",
"+	c #7F7F7F",
"@	c #BFBFBF",
"#	c #FFFFFF",
"$	c None",
"..+@#@@+..+$$$$$",
".#.#@@...#.$$$$$",
"+..+..@@+..+$$$$",
"$.#.@@##@.#.$$$$",
"$+..+#@@@+..+$$$",
"$$.#.@#@@@.#.$$$",
"$$+..+@#@@+..+$$",
"$$$.#.#@@...#.$$",
"$$$+..+..@@+..+$",
"$$$$.#.@@##@.#.$",
"$$$$+..+#@@@+..+",
"$$$$$.#.@#@@@.#.",
"$$$$$+..+@#@@+..",
"$$$$$$.#.#@@...#",
"$$$$$$+..+..@@+."};
