/* XPM */
static const char*an_key[] = {
/* columns rows colors chars-per-pixel */
"16 15 6 1",
"  c Gray0",
". c #00007f",
"X c Gray50",
"o c Blue",
"O c None",
"+ c Gray100",
/* pixels */
"OOOOOOOOOOOOOOOO",
"OOOOOOOOOOOOOOOO",
"OO+++OOOOOOOOOOO",
"OO...+OOOOOOOOOO",
"+X. ..OOOOOOOOOO",
"+. X..+++++++++O",
"O o+O...........",
"O o+O      ..   ",
"+ .O. XXXXX.. XX",
"+X... XOOO+   XO",
"OX   XOOOO+ X XO",
"OOXXXOOOOOOXOXXO",
"OOOOOOOOOOOOOOOO",
"OOOOOOOOOOOOOOOO",
"OOOOOOOOOOOOOOOO"
};
