/* XPM */
static const char*an_last[] = {
/* columns rows colors chars-per-pixel */
"16 15 4 1",
"  c #00007f",
". c Gray50",
"X c None",
"o c Gray100",
/* pixels */
"XXXXXXXXXXXXXXXX",
"XXXXXXXXXXXXXXXX",
"ooXXXXooXXXXooo.",
"o oXXXo oXXXo  .",
"o  oXXo  oXXo  .",
"o   oXo   oXo  .",
"o    oo    oo  .",
"o     o     o  .",
"o    .o    .o  .",
"o   .Xo   .Xo  .",
"o  .XXo  .XXo  .",
"o .XXXo .XXXo  .",
"o.XXXXo.XXXXo...",
"XXXXXXXXXXXXXXXX",
"XXXXXXXXXXXXXXXX"
};
