/* XPM */
static const char* icon32[] = {
/* columns rows colors chars-per-pixel */
"32 32 3 1",
"  c Gray0",
". c Red",
"X c None",
/* pixels */
"XXXXXXXXXXXX        XXXXXXXXXXXX",
"XXXXXXXXXX  ........  XXXXXXXXXX",
"XXXXXXXXX ............ XXXXXXXXX",
"XXXXXXXX    ........     XXXXXXX",
"XXXXXX  . ..        .. ..   XXXX",
"XXXX  ... ............ .....  XX",
"XX  ..... ...........  ....   XX",
"XX .  ....   .....   ....  .. XX",
"XX ...  .....     .....  .... XX",
"XX .....   ..........  ...... XX",
"XX ........  ......  ........ XX",
"XX ..........  ..  .......... XX",
"XX ............  ............ XX",
"XX ............. ............ XX",
"XX ............. ............ XX",
"XX ............. ............ XX",
"XX ............. ............ XX",
"XX ............. ............ XX",
"XX ............. ............ XX",
"XX ............. ............ XX",
"XX ............. ............ XX",
"XX ............. ............ XX",
"XX ............. ............ XX",
"XX ............. ............ XX",
"XX ............. ............ XX",
"XX ............. ............ XX",
"XX  ............ ...........  XX",
"XXXX   ......... .........  XXXX",
"XXXXXXX   ...... .......  XXXXXX",
"XXXXXXXXXX  .... .....  XXXXXXXX",
"XXXXXXXXXXXX   . ..   XXXXXXXXXX",
"XXXXXXXXXXXXXXX    XXXXXXXXXXXXX"
};
