/* XPM */
static const char* pi_acces[] = {
/* columns rows colors chars-per-pixel */
"16 15 3 1",
"  c Gray0",
". c None",
"X c #808080",
/* pixels */
".....   ........",
"..    X .    ...",
". XXXX    XX ...",
". XX  XXXX    ..",
". X ..    XXXX .",
". X ......  XX .",
". X ........ X .",
"  X   ...... X .",
" XXXXX   ... X .",
" XX   XXX    X .",
"    ..   XXX X .",
".........  XXX .",
"........... XXX ",
"........... XXX ",
"...........     "
};
