/* XPM */
static const char* pi_space[] = {
/* columns rows colors chars-per-pixel */
"16 15 4 1",
"  c Gray0",
". c Red",
"X c None",
"o c Yellow",
/* pixels */
"XXXXXXXXXXXXXXXX",
"XXXXXXXXXXXXXXXX",
"XXXXXXXXXXXXXXXX",
"XXXXXX    XX..XX",
"XXXXX oooo X...X",
"XXXX oooooo....X",
"XXX ooooo....XXX",
"XX. ooo...oo XXX",
"XX. o...oooo XXX",
"XX....oooooo XXX",
"XXXX oooooo XXXX",
"XXXXX oooo XXXXX",
"XXXXXX    XXXXXX",
"XXXXXXXXXXXXXXXX",
"XXXXXXXXXXXXXXXX"
};
