/* XPM */
static const char* pi_tile[] = {
/* columns rows colors chars-per-pixel */
"16 15 3 1",
"  c Gray0",
". c Red",
"X c None",
/* pixels */
"XXXXXXXXXXXXXXXX",
"XXXXXXXXXXXXXXXX",
"XXXXXXXXXXXXXXXX",
"XXXXXXXXXXXXXXXX",
"XXXXXXX  XXXXXXX",
"XXXXX  ..  XXXXX",
"XXX  ......  XXX",
"X  ..........  X",
"X .  ......  . X",
"X ...  ..  ... X",
"X .....  ..... X",
"X  .... ....  XX",
"XXX  .. ..  XXXX",
"XXXXX     XXXXXX",
"XXXXXXX XXXXXXXX"
};
