/* XPM */
static const char* vports04[] = {
"41 31 3 1",
".	c #000000",
"+	c #808080",
"@	c #C0C0C0",
".........................................",
".+++++++++++++++++++++++++++++++++++++++.",
".+++++++++++++++++++++++++++++++++++++++.",
".+++++++++++++++++++++++++++++++++++++++.",
".+++++++++++++++++++++++++++++++++++++++.",
".+++++++++++++++++++++++++++++++++++++++.",
".+++++++++++++++++++++++++++++++++++++++.",
".+++++++++++++++++++++++++++++++++++++++.",
".+++++++++++++++++++++++++++++++++++++++.",
".........................................",
"@@@@@@@@@@@@@@@@@@@@@@@@@@@@@@@@@@@@@@@@@",
".........................................",
".+++++++++++++++++++++++++++++++++++++++.",
".+++++++++++++++++++++++++++++++++++++++.",
".+++++++++++++++++++++++++++++++++++++++.",
".+++++++++++++++++++++++++++++++++++++++.",
".+++++++++++++++++++++++++++++++++++++++.",
".+++++++++++++++++++++++++++++++++++++++.",
".+++++++++++++++++++++++++++++++++++++++.",
".+++++++++++++++++++++++++++++++++++++++.",
".+++++++++++++++++++++++++++++++++++++++.",
".+++++++++++++++++++++++++++++++++++++++.",
".+++++++++++++++++++++++++++++++++++++++.",
".+++++++++++++++++++++++++++++++++++++++.",
".+++++++++++++++++++++++++++++++++++++++.",
".+++++++++++++++++++++++++++++++++++++++.",
".+++++++++++++++++++++++++++++++++++++++.",
".+++++++++++++++++++++++++++++++++++++++.",
".+++++++++++++++++++++++++++++++++++++++.",
".+++++++++++++++++++++++++++++++++++++++.",
"........................................."};
