/* XPM */
static char *ac_spot[] = {
/* columns rows colors chars-per-pixel */
"16 15 5 1",
"  c Gray0",
". c Gray50",
"X c Yellow",
"o c Gray75",
"O c Gray100",
/* pixels */
"oo   ooooooooooo",
"o oOO oooooooooo",
" .oooO ooooooooo",
"  .oooO oooooooo",
"   .o.oo     ooo",
"o   .o. o.o oooo",
"oo   . XOo ooooo",
"ooo   OXO oXoXoX",
"oooo oXO oOoOoOo",
"ooo o.o oXoXoXoo",
"oo     oOoOoOooo",
"oooooooooXoXoooo",
"ooooooooOoOooooo",
"oooooooooXoooooo",
"ooooooooOooooooo"
};
