/* XPM */
static const char*ac_rot[] = {
/* columns rows colors chars-per-pixel */
"16 15 4 1",
"  c Gray0",
". c #00007f",
"X c Gray50",
"o c None",
/* pixels */
"oo. ....oooooooo",
"oooX ...oo ooooo",
"oooo. ..ooX..ooo",
"ooX..X .oooo..oo",
"oo..ooX ooooo.oo",
"o.Xoooo.oooooX.o",
"o.oooooooooooo.o",
"o oooooooooooo o",
"o oooooooooooo o",
"o.oooooooooooo.o",
"o.XooooooooooX.o",
"oo.oooooooooo.oo",
"oo..oooooooo..oo",
"ooo..XooooX..ooo",
"ooooo..  ..ooooo"
};
