/* XPM */
static const char*ac_erase[] = {
/* columns rows colors chars-per-pixel */
"16 15 5 1",
"  c Gray0",
". c Gray50",
"X c None",
"O c Gray75",
"o c Gray100",
/* pixels */
"XXXXXXXXXXXXXXXX",
"XXXXXXXXXXXXXXXX",
"XXXXXXXX.    ..X",
"XXXXXXX oooooO X",
"XXXXXX oooooo  X",
"XXXXX oooooo . X",
"XXXX oooooo .. X",
"XXX oooooo .. XX",
"XX oooooo .. XXX",
"X OOOOOO .. XXXX",
"X OOOOOO . XXXXX",
"X OOOOOO  XXXXXX",
"XX      .XXXXXXX",
"XXXXXXXXXXXXXXXX",
"XXXXXXXXXXXXXXXX"
};
