/* XPM */
static const char*an_prev[] = {
/* columns rows colors chars-per-pixel */
"16 15 4 1",
"  c #00007f",
". c Gray50",
"X c None",
"o c Gray100",
/* pixels */
"XXXXXXXXXXXXXXXX",
"XXXXXXXXXXXXXXXX",
"XXXXXXo.Xoooo.XX",
"XXXXXo .Xo   .XX",
"XXXXo  .Xo   .XX",
"XXXo   .Xo   .XX",
"XXo    .Xo   .XX",
"Xo     .Xo   .XX",
"XX.    .Xo   .XX",
"XXX.   .Xo   .XX",
"XXXX.  .Xo   .XX",
"XXXXX. .Xo   .XX",
"XXXXXX..Xo....XX",
"XXXXXXXXXXXXXXXX",
"XXXXXXXXXXXXXXXX"
};
