/* XPM */
static const char* pi_slope[] = {
/* columns rows colors chars-per-pixel */
"16 15 3 1",
"  c Gray0",
". c Red",
"X c None",
/* pixels */
"XXXXX    XXXXXXX",
"XXXX .... XXXXXX",
"XX   ....  XXXXX",
"  ..      .  XXX",
" .  ...... . XXX",
" ...  ..  ... XX",
" .....  ..... XX",
" ...... ...... X",
" ....... ..... X",
" ....... ...... ",
" ........ ..... ",
"X  ....... ... X",
"XXX  ..... .. XX",
"XXXXX  ....  XXX",
"XXXXXXX     XXXX"
};
