/* XPM */
static const char* pi_train[] = {
/* columns rows colors chars-per-pixel */
"16 15 4 1",
"  c Gray0",
". c #800000",
"X c None",
"o c #808080",
/* pixels */
"XXXXXXXXXXXXXXXX",
"XXXXXo XXXo XXXX",
"XXX..o ...o ..XX",
"XXX..o ...o ..XX",
"XXXXXo XXXo XXXX",
"XXX..o ...o ..XX",
"XXX..o ...o ..XX",
"XXXXXo XXXo XXXX",
"XXX..o ...o ..XX",
"XXX..o ...o ..XX",
"XXXXXo XXXo XXXX",
"XXX..o ...o ..XX",
"XXX..o ...o ..XX",
"XXXXXo XXXo XXXX",
"XXXXXXXXXXXXXXXX"
};
