/* XPM */
static const char*st_snap[] = {
/* columns rows colors chars-per-pixel */
"16 15 6 1",
"  c Gray0",
". c #7f0000",
"X c Gray50",
"o c Red",
"O c Yellow",
"+ c None",
/* pixels */
"++++X+++++++X+++",
"++++X+++++++X+++",
"+++o. ++++++X+++",
"++oOo. +++++X+++",
"XX.oo. XXXXXXXXX",
"++ ..  +++++X+++",
"+++   ++++++X+++",
"++++X+++++++X+++",
"++++X+++++++X+++",
"++++X+++++++X+++",
"++++X+++++++X+++",
"++++X+++++++X+++",
"XXXXXXXXXXXXXXXX",
"++++X+++++++X+++",
"++++X+++++++X+++"
};
