/* XPM */
static const char*ac_next[] = {
/* columns rows colors chars-per-pixel */
"16 15 6 1",
"  c Gray0",
". c #00007f",
"X c Gray50",
"o c Yellow",
"1 c Gray75",
"O c None",
/* pixels */
"OOOOOOOOOOOOOOOO",
"OOOOO....OOOOOOO",
"OOOO..11....OOOO",
"OOO.1....1..OOOO",
"OO.111111.X.OOOO",
"O........XX.OOOO",
"O.111111.X  OOOO",
"O.111111.X o OOO",
"O.1111     oo OO",
"O.1111 ooooooo O",
"O.1111 oooooooo ",
"O.1111 ooooooo O",
"O.....     oo OO",
"OOOOOOOOOO o OOO",
"OOOOOOOOOO  OOOO"
};
