/* XPM */
static const char*ac_paint[] = {
/* columns rows colors chars-per-pixel */
"16 15 4 1",
"  c Gray0",
". c Gray50",
"X c None",
"o c Gray100",
/* pixels */
"XXXXXXXXXXXXXXXX",
"XXXXX  XXXXXXXXX",
"XXXX oo XXXXXXXX",
"XXXX o   XXXXXXX",
"XXXX  o . XXXXXX",
"XXXX oo o.   XXX",
"XXX oo   o    XX",
"XX oooo oo.   XX",
"X ooooooo..   XX",
"XX ooooo.. X  XX",
"XXX ooo.. XX  XX",
"XXXX ... XXX  XX",
"XXXXX . XXXX XXX",
"XXXXXX XXXXXXXXX",
"XXXXXXXXXXXXXXXX"
};
