/* XPM */
static const char* ac_cam[] = {
"16 15 6 1",
".	c None",
"+	c #7F7F7F",
"@	c #000000",
"#	c #FFFFFF",
"$	c #BFBFBF",
"%	c #FF0000",
"..+@+...+@+.....",
".@##$@.@##$@....",
"+##@#$@##@#$@...",
"@#@@@#@#@@@#@...",
"+$#@#$@$#@#$@...",
".@$#$@$@$#$@@..@",
"..@@@$$$@@@$+@@@",
"..@$$+$+$+$++$#@",
"..@+%%++++++@+$@",
"..@@@@@@@@@@@@@@",
"...@@@@@@@@@..@@",
"......@+@......@",
"......@+@.......",
"......@@@.......",
"................"};
