/* XPM */
static const char* ac_spot[] = {
"16 15 6 1",
". 	c None",
"+	c #000000",
"@	c #BFBFBF",
"#	c #FFFFFF",
"$	c #7F7F7F",
"%	c #FFFF00",
"..+++...........",
".+@##+..........",
"+$@@@#+.........",
"++$@@@#+........",
"+++$@$@@+++++...",
".+++$@$+@$@+....",
"..+++$+%#@+.....",
"...+++#%#+@%.%.%",
"....+@%#+@#@#@#.",
"...+@$@+@%@%@%..",
"..+++++.#@#@#...",
".........%@%....",
"........#@#.....",
".........%......",
"........#......."};
