/* XPM */
static const char*ac_zoom[] = {
"16 15 7 1",
".	c None",
"+	c #00007F",
"@	c #7F7F7F",
"#	c #BFBFBF",
"$	c #FFFFFF",
"%	c #000000",
"&	c #0000FF",
"....++++........",
"..@+####+@......",
"..+#$$$##%......",
".+#$$#####%.....",
".+#$######%.....",
".+######$#%.....",
".+#####$$@%.....",
"..+##$$$#%......",
"..@%###@%@%.....",
"....%%%%+@$%....",
".........%+&@...",
"..........%+&@..",
"...........%+&@.",
"............%+&.",
".............%.."};
