/* XPM */
static const char*an_next[] = {
/* columns rows colors chars-per-pixel */
"16 15 4 1",
"  c #00007f",
". c Gray50",
"X c None",
"o c Gray100",
/* pixels */
"XXXXXXXXXXXXXXXX",
"XXXXXXXXXXXXXXXX",
"Xoooo.XooXXXXXXX",
"Xo   .Xo oXXXXXX",
"Xo   .Xo  oXXXXX",
"Xo   .Xo   oXXXX",
"Xo   .Xo    oXXX",
"Xo   .Xo     oXX",
"Xo   .Xo    .XXX",
"Xo   .Xo   .XXXX",
"Xo   .Xo  .XXXXX",
"Xo   .Xo .XXXXXX",
"Xo....Xo.XXXXXXX",
"XXXXXXXXXXXXXXXX",
"XXXXXXXXXXXXXXXX"
};
