/* XPM */
static const char*an_play[] = {
/* columns rows colors chars-per-pixel */
"16 15 5 1",
"  c #00007f",
". c Gray50",
"X c Blue",
"o c None",
"O c Gray100",
/* pixels */
"oooooooooooooooo",
"oooooooooooooooo",
"ooOOOooooooooooo",
"ooOX OOooooooooo",
"ooO X XOOooooooo",
"ooOX X X OOooooo",
"ooO X X X XOOooo",
"ooOX X X X X OOo",
"ooO X X X X..ooo",
"ooOX X X ..ooooo",
"ooO X X..ooooooo",
"ooOX ..ooooooooo",
"oo...ooooooooooo",
"oooooooooooooooo",
"oooooooooooooooo"
};
