/* XPM */
static const char* cr_zoom[] = {
/* columns rows colors chars-per-pixel */
"32 32 3 1",
"  c None",
". c #000000",
"+ c #FFFFFF",
/* pixels */
"                                ",
"                                ",
"                                ",
"                                ",
"                                ",
"                                ",
"                                ",
"                                ",
"           .....                ",
"         ..+++++.               ",
"        .++++++++.              ",
"        .++++++++.              ",
"       .++++++++++.             ",
"       .++++++++++.             ",
"       .++++++++++.             ",
"       .++++++++++.             ",
"        .++++++++.              ",
"        .+++++++...             ",
"         ..++++.....            ",
"           .....+....           ",
"                .+....          ",
"                 .+....         ",
"                  .+...         ",
"                   .+.          ",
"                    .           ",
"                                ",
"                                ",
"                                ",
"                                ",
"                                ",
"                                ",
"                                "
};

