/* XPM */
static const char* info[] = {
/* width height ncolors chars_per_pixel */
"16 15 4 1",
/* colors */
"  c None",
". c #808080",
"X c #000080",
"o c #FFFFFF",
/* pixels */
"     .XXXXX.    ",
"   .XXXXXXXXX.  ",
"  .XXXX.oo.XXX. ",
"  XXXXXooooXXXX ",
" .XXXXX.oo.XXXX.",
" XXXXXXXXXXXXXXX",
" XXXXXoooooXXXXX",
" XXXXXX.oooXXXXX",
" XXXXXX.oooXXXXX",
" .XXXXX.oooXXXX.",
"  XXXXooooooXXX ",
"  .XXXXXXXXXXX. ",
"   .XXXXXXXXX.  ",
"     .XXXXX.    ",
"                "
};
