/* XPM */
static const char* photo[] = {
/* width height ncolors chars_per_pixel */
"16 15 6 1",
/* colors */
"Z c None",
"  c #000000",
". c #00FFFF",
"X c #C0C0C0",
"o c #808080",
"O c #FFFFFF",
/* pixels */
"ZZZZZZZZZZZZZZZZ",
"ZZZZZZZZZZZZZZZZ",
"ZZZZZZo  oZZZZZZ",
"ZZ  Zo OO oZ  ZZ",
"Z              Z",
"Z OOO      OOO Z",
"Z OO  oooo  OO Z",
"Z oo o.Xooo oo Z",
"Z oo oXoooo oo Z",
"Z oo oooooo oo Z",
"Z oo  oooo  oo Z",
"Zo            oZ",
"ZZZZZZo  oZZZZZZ",
"ZZZZZZZZZZZZZZZZ",
"ZZZZZZZZZZZZZZZZ"
};
