/* XPM */
static const char* pi_extra[] = {
/* columns rows colors chars-per-pixel */
"16 15 4 1",
"  c Gray0",
". c None",
"X c #808080",
"o c #c0c0c0",
/* pixels */
"................",
"................",
"......    ......",
".....  oo    ...",
".... o    o  ...",
"... oooooo X ...",
"..        XX ...",
".. oooooo XX ...",
".. oooooo XX ...",
".. oooooo XX ...",
".. oooooo XX ...",
".. oooooo X ....",
".. oooooo  .....",
"..        ......",
"................"
};
