/* XPM */
static const char* pi_tech[] = {
/* columns rows colors chars-per-pixel */
"16 15 5 1",
"  c Gray0",
". c None",
"X c #808080",
"o c #c0c0c0",
"O c Gray100",
/* pixels */
"......    ......",
"...  . XX .  ...",
".. oo  oo . o ..",
"..X oo oo  oo ..",
".   XoooOooo   .",
". ooooX  Xoooo .",
". oooo XX oooo .",
".   ooo  ooo   .",
". X o ooOo o o .",
".  X X OO o o  .",
".. X X    o o ..",
".. X   oo   o ..",
"..   . oo .   ..",
"......    ......",
"................"
};
