/* XPM */
static const char* st_prev[] = {
"16 15 6 1",
"+ 	c None",
".	c #000000",
"@	c #FFFFFF",
"#	c #BFBFBF",
"$	c #7F7F7F",
"%	c #00FFFF",
".........+++++++",
".@@@@@@@..++++++",
".@@@@@@@.#.+++++",
".@@@@@@@....++++",
".@@@@@@@@@@.++++",
".@@@@@@@....++++",
".@@@@@@.$##$.+++",
".@@@@@.$%%#$$.++",
".@@@@@.#%##$#.++",
".@@@@@.####$#.++",
".@@@@@.$##%$$.++",
".@@@@@@.$##$.$++",
".@@@@@@@....$..+",
".@@@@@@@@@@.+...",
"............++.."};
