/* XPM */
static const char* st_fast[] = {
"16 15 3 1",
". 	c None",
"+	c #7F7F7F",
"@	c #000000",
"......+@@+......",
"....+@..+.@+....",
"..@+....+...@+..",
"@@......+....+@.",
"@.@+....+...@.@.",
"@..+@+..++@+..@.",
"@.....+@@.....@.",
"@......@+.....@.",
"@......@+.....@.",
"@....++@.++...@.",
"@.+++..@...++.@.",
"@+.....@.....+@.",
".+@+...@....+@+.",
"...+@+.@.+@+....",
"......+@@......."};
