<?xml version="1.0" encoding="UTF-8" standalone="no"?>
<svg
   width="64px"
   height="64px"
   viewBox="0 0 64 64"
   version="1.1"
   id="svg9"
   sodipodi:docname="application-white-ldr-flatery.svg"
   inkscape:version="1.1 (c68e22c387, 2021-05-23)"
   xmlns:inkscape="http://www.inkscape.org/namespaces/inkscape"
   xmlns:sodipodi="http://sodipodi.sourceforge.net/DTD/sodipodi-0.dtd"
   xmlns="http://www.w3.org/2000/svg"
   xmlns:svg="http://www.w3.org/2000/svg">
  <defs
     id="defs13">
    <rect
       x="7.8367607"
       y="66.733429"
       width="97.938246"
       height="26.384012"
       id="rect7644" />
  </defs>
  <sodipodi:namedview
     id="namedview11"
     pagecolor="#ffffff"
     bordercolor="#666666"
     borderopacity="1.0"
     inkscape:pageshadow="2"
     inkscape:pageopacity="0.0"
     inkscape:pagecheckerboard="true"
     showgrid="false"
     inkscape:zoom="7.1219298"
     inkscape:cx="31.311738"
     inkscape:cy="31.452149"
     inkscape:window-width="1336"
     inkscape:window-height="740"
     inkscape:window-x="30"
     inkscape:window-y="0"
     inkscape:window-maximized="1"
     inkscape:current-layer="surface1" />
  <g
     id="surface1">
    <path
       style="fill:#ffffff;fill-opacity:1;fill-rule:nonzero;stroke:none"
       d="m 42.332031,3.144531 h -31.75 c -1.464843,0 -2.644531,1.179688 -2.644531,2.648438 v 52.914062 c 0,1.46875 1.179688,2.648438 2.644531,2.648438 h 42.335938 c 1.464843,0 2.644531,-1.179688 2.644531,-2.648438 V 16.375 Z m 0,0"
       id="path2" />
    <path
       style="fill:#cccccc;fill-opacity:1;fill-rule:nonzero;stroke:none"
       d="M 55.5625,16.375 42.332031,3.144531 v 10.585938 c 0,1.464843 1.179688,2.644531 2.648438,2.644531 z m 0,0"
       id="path4" />
    <g
       id="g60424"
       transform="matrix(0.60689851,0,0,0.60689851,12.470091,17.505576)"
       style="display:inline">
      <path
         style="fill:#e72825;fill-opacity:1;stroke:none;stroke-width:0.264583px;stroke-linecap:butt;stroke-linejoin:miter;stroke-opacity:1"
         d="M 16.32832,36.384323 31.8496,45.328892 47.461664,36.350768 48.802369,11.716295 39.370259,8.3456047 38.491519,5.7506275 33.113317,4.2864157 28.888676,4.48755 25.171229,5.6026197 24.190537,8.4789104 21.457914,9.32118 14.664128,11.620335 Z"
         id="path58937"
         sodipodi:nodetypes="ccccccccccccc" />
      <path
         style="display:inline;fill:#000000;fill-opacity:1;stroke-width:0.0811667"
         d="M 31.409257,45.930864 C 31.164107,45.779312 27.530168,43.6549 23.333843,41.209943 19.137518,38.764984 15.694109,36.756908 15.681821,36.747545 15.669531,36.738189 15.314302,31.23747 14.892418,24.523736 14.470535,17.809999 14.102227,12.042317 14.073956,11.706662 l -0.0514,-0.61028 3.438142,-1.1636907 c 1.890979,-0.640028 4.104724,-1.387494 4.919437,-1.661037 l 1.481293,-0.497348 V 7.1695352 c 0,-1.0495259 0.429843,-1.6225735 1.652959,-2.2036491 2.429305,-1.1541078 6.69558,-1.4704729 10.255915,-0.7605222 1.591302,0.3173129 2.661655,0.7620652 3.366483,1.3988354 0.491089,0.4436693 0.633343,0.7910398 0.633343,1.5465584 v 0.6437096 l 1.156627,0.40246 c 0.636144,0.221355 2.80221,0.958381 4.813473,1.637839 2.011267,0.6794567 3.701296,1.2628457 3.755619,1.2964187 0.07646,0.04725 -0.08659,2.930013 -0.721577,12.75784 -0.451188,6.983238 -0.844577,12.721847 -0.874193,12.752463 -0.06676,0.06901 -15.810202,9.474789 -15.9465,9.527091 -0.05423,0.0208 -0.299165,-0.08617 -0.544319,-0.237715 z m -0.13451,-10.501669 c 0.02966,-4.854792 0.05397,-10.546104 0.05399,-12.647363 l 4e-5,-3.820469 -7.865831,-3.180168 c -4.326204,-1.749091 -7.896748,-3.180169 -7.934538,-3.180169 -0.03779,0 0.260437,5.24616 0.66273,11.658132 l 0.731441,11.658129 0.185654,0.123271 c 0.306658,0.203615 14.013759,8.205191 14.065104,8.210562 0.02611,0.0028 0.07175,-3.967135 0.101416,-8.821925 z m 8.341687,4.647277 c 3.848796,-2.298792 7.012983,-4.194788 7.031526,-4.213332 0.02976,-0.02976 1.555268,-23.19864 1.529963,-23.236557 -0.01362,-0.0204 -15.479474,6.288564 -15.523312,6.332401 -0.05512,0.05512 -0.140321,25.2971 -0.08537,25.2971 0.02715,0 3.198403,-1.880826 7.0472,-4.179612 z m -0.0741,-25.333396 c 4.120725,-1.678947 7.526927,-3.08516 7.569335,-3.124923 0.04621,-0.04332 -0.02356,-0.07229 -0.174044,-0.07229 -0.138134,0 -1.811819,-0.529615 -3.719298,-1.17692 -1.907482,-0.6473077 -3.482275,-1.1769217 -3.499541,-1.1769217 -0.01727,0 -0.0072,0.778854 0.0224,1.7307867 l 0.05379,1.730787 -0.276217,0.169952 c -0.442311,0.272148 -1.539706,0.804231 -2.198113,1.065776 -2.692583,1.06961 -6.056838,1.233792 -9.195867,0.448776 -1.568481,-0.392247 -3.825787,-1.295943 -4.080727,-1.633687 -0.07361,-0.09752 -0.101458,-0.598006 -0.101458,-1.823402 0,-1.1317897 -0.02829,-1.6889887 -0.08574,-1.6889887 -0.04715,0 -1.645124,0.526362 -3.551048,1.1696967 -1.905928,0.643333 -3.536775,1.18227 -3.624106,1.197639 -0.156019,0.02746 14.962279,6.208238 15.230931,6.226833 0.0756,0.0052 3.508956,-1.364168 7.629685,-3.043113 z m -5.423498,-1.25653 c 1.258919,-0.188982 2.430258,-0.546426 3.650606,-1.114007 L 38.56901,12.000661 38.54055,10.400159 C 38.52487,9.5198833 38.49044,8.7780403 38.46401,8.7516213 c -0.02644,-0.02641 -0.293928,0.06344 -0.594427,0.199693 -1.611082,0.730498 -4.337968,1.0903787 -7.250987,0.956955 -2.192477,-0.100422 -3.606403,-0.410885 -5.35701,-1.17626 -0.07931,-0.03468 -0.101459,0.318994 -0.101459,1.6201277 v 1.664485 l 0.682902,0.285869 c 1.546669,0.647449 3.306572,1.101386 4.931852,1.272087 0.785603,0.08251 2.510378,0.0371 3.343979,-0.08803 z m 0.346199,-4.9889727 c 1.648575,-0.21366 3.136321,-0.693424 3.742634,-1.2069151 0.145085,-0.1228716 0.263794,-0.286375 0.263794,-0.3633381 0,-0.1939659 -0.369465,-0.5262094 -0.852253,-0.766409 -2.735232,-1.3608231 -9.026054,-1.3362967 -11.660671,0.045461 -0.585899,0.3072814 -0.831624,0.5617213 -0.7601,0.7870639 0.145116,0.4572194 1.661573,1.1061413 3.249154,1.3903753 1.838881,0.329228 4.034644,0.37074 6.017442,0.113762 z"
         id="path57941-3"
         inkscape:export-filename="/home/yutyo/Resimler/leocad-logo-red.png"
         inkscape:export-xdpi="282.22223"
         inkscape:export-ydpi="282.22223"
         sodipodi:nodetypes="ssssscsscssssscsssssssssscssscscssssssssssssssccscsssssscsscscccsssscssccssscscss" />
    </g>
    <text
       xml:space="preserve"
       id="text7642"
       style="font-size:40px;line-height:0;font-family:sans-serif;white-space:pre;shape-inside:url(#rect7644)"
       transform="matrix(0.2919585,0,0,0.2919585,17.935003,33.337787)"><tspan
         x="7.8359375"
         y="77.176337"
         id="tspan14518"><tspan
           style="font-weight:bold;font-family:'Open Sans';-inkscape-font-specification:'Open Sans Bold'"
           id="tspan14516">LCD</tspan></tspan></text>
  </g>
</svg>
